<svg width="128" height="128" viewBox="0 0 128 128" xmlns="http://www.w3.org/2000/svg">
  <defs>
    <linearGradient id="grad1" x1="0%" y1="0%" x2="100%" y2="100%">
      <stop offset="0%" style="stop-color:#667eea;stop-opacity:1" />
      <stop offset="100%" style="stop-color:#764ba2;stop-opacity:1" />
    </linearGradient>
  </defs>
  
  <!-- Background circle -->
  <circle cx="64" cy="64" r="60" fill="url(#grad1)" stroke="#fff" stroke-width="4"/>
  
  <!-- Clipboard icon -->
  <g transform="translate(32, 28)">
    <!-- Main clipboard -->
    <rect x="8" y="8" width="48" height="64" rx="4" fill="#fff" stroke="#333" stroke-width="2"/>
    
    <!-- Clipboard top -->
    <rect x="16" y="4" width="32" height="8" rx="2" fill="#fff" stroke="#333" stroke-width="2"/>
    
    <!-- Lines representing text -->
    <rect x="16" y="20" width="32" height="2" fill="#667eea" rx="1"/>
    <rect x="16" y="26" width="28" height="2" fill="#667eea" rx="1"/>
    <rect x="16" y="32" width="32" height="2" fill="#667eea" rx="1"/>
    <rect x="16" y="38" width="24" height="2" fill="#667eea" rx="1"/>
    <rect x="16" y="44" width="32" height="2" fill="#667eea" rx="1"/>
    <rect x="16" y="50" width="28" height="2" fill="#667eea" rx="1"/>
    <rect x="16" y="56" width="32" height="2" fill="#667eea" rx="1"/>
    <rect x="16" y="62" width="20" height="2" fill="#667eea" rx="1"/>
  </g>
  
  <!-- Copy symbol -->
  <g transform="translate(72, 48)">
    <rect x="4" y="4" width="32" height="40" rx="3" fill="#fff" stroke="#333" stroke-width="2" opacity="0.8"/>
    <rect x="8" y="8" width="24" height="32" rx="2" fill="#667eea" opacity="0.3"/>
  </g>
</svg> 